<?xml version="1.0" encoding="UTF-8"?>
<svg id="thumbnailsyt" data-name="thumbnails.yt" xmlns="http://www.w3.org/2000/svg" viewBox="0 0 553.09 543.16">
  <g id="thumbnailsyt-logo" data-name="thumbnails.yt" fill="#fff">
    <g>
      <path class="cls-2" d="m276.06,542.91c-51.99,0-103.98-.59-155.96.16-56.08.81-106.27-37.31-118.05-97.12-1.37-6.98-1.88-14.23-1.89-21.36C.03,323.46.18,222.32,0,121.17-.1,63.17,37.42,21.22,83.3,6.56,95.18,2.77,108.07.48,120.51.41,224.65-.1,328.79-.03,432.93.07c58.41.05,109.91,44.41,119.01,102.2.75,4.75.93,9.63.93,14.45.1,100.81.09,201.61.22,302.42.03,23.3-4.64,45.31-16.55,65.52-22.34,37.9-55.89,57.44-99.53,58.09-53.64.79-107.3.19-160.96.19v-.03Zm.66-116.93c0,.17,0,.33,0,.5,39,0,77.99.04,116.99-.05,4.31,0,8.69-.37,12.92-1.17,37.98-7.21,68.87-41.03,71.69-79.67,1.33-18.24.98-36.62.94-54.94-.07-29.99.49-60.03-1.05-89.96-1.89-36.85-30.99-70.14-66.84-77.28-12.43-2.47-25.49-2.43-38.27-2.46-70.83-.2-141.66-.28-212.48.02-45.96.2-84.19,39.06-84.22,84.87-.03,45-.05,89.99.05,134.99.01,4.63.51,9.34,1.47,13.87,9.13,43.07,43.63,71.1,87.81,71.25,37,.13,73.99.03,110.99.03Z"/>
      <path class="cls-1" d="m278.85,402.96c0-3.3,0-6.41,0-9.53-.02-10.83.3-21.67-.19-32.48-.24-5.31,1.76-8.06,6.15-10.57,21.81-12.47,43.45-25.24,65.18-37.87,12.24-7.11,20.25-17.46,22.31-31.47,2.7-18.38-5.42-32.09-20.69-41.61-17.37-10.83-35.06-21.17-52.61-31.71-5.57-3.34-11.23-6.52-16.68-10.05-1.45-.94-3.18-2.87-3.2-4.37-.23-16.13-.14-32.27-.14-48.8,1.33-.12,2.59-.33,3.84-.33,36.65.04,73.3.2,109.95.12,33.18-.07,62.59,27.26,63.09,60.39.67,44.8.64,89.63.1,134.44-.36,30.08-20.72,55.73-48.27,62.69-3.84.97-7.89,1.57-11.84,1.57-37.65.06-75.3-.05-112.95-.12-1.13,0-2.25-.17-4.05-.32Z"/>
      <path class="cls-1" d="m213.61,273.15c0-22.32.02-44.64-.02-66.96,0-4.7.89-8.94,4.89-11.96,4.61-3.47,8.48-3.64,13.8-.35,29.72,18.41,59.4,36.86,89.12,55.28,6.22,3.86,12.62,7.45,18.76,11.43,13.69,8.87,13.48,21.8-.72,30.32-35.26,21.15-70.82,41.8-105.88,63.26-10.32,6.32-19.96-1.36-19.98-11.56-.03-11.49,0-22.99,0-34.48,0-11.66,0-23.32,0-34.98h.03Z"/>
    </g>
  </g>
</svg>